<?xml version="1.0" encoding="utf-8"?>
<!-- Generator: Adobe Illustrator 19.2.1, SVG Export Plug-In . SVG Version: 6.00 Build 0)  -->
<svg version="1.1" id="Layer_1" xmlns="http://www.w3.org/2000/svg" xmlns:xlink="http://www.w3.org/1999/xlink" x="0px" y="0px"
	 viewBox="0 0 1024 1024" style="enable-background:new 0 0 1024 1024;" xml:space="preserve">
<style type="text/css">
	.st0{fill:#F7931E;}
	.st1{fill:none;stroke:#00A99D;stroke-width:33;stroke-miterlimit:10;}
	.st2{fill:#00A99D;}
	.st3{fill:#CCCCCC;}
</style>
<g>
	<g>
		<path class="st0" d="M556.1,637.2c2.8,6.6,3.8,16.8,3.8,25.2c-21.5,2.7-47.8,8.9-73.1,22.8h-9.3c0,0-11.9-40.2-13.5-88
			c-20.6,53.2-57.8,88-100.8,88c-47.1,0-68.3-32.3-68.3-85.9V469.9c-13.4,3.1-30.2,4.3-45.1,3.4c-2.7-8.4-3.8-16.5-3.8-25
			c21.5-2.7,47.6-9.2,72.9-23h23v163.3c0,37,12.4,57.9,40.5,57.9c42.7,0,81.5-65.3,81.5-146.4v-30.2c-13.4,3.1-30.2,4.3-45.1,3.4
			c-2.7-8.4-3.8-16.5-3.8-25c21.5-2.7,47.6-9.2,72.9-23h23v159c0,22.1,1.5,41.2,3.1,55.6C526.9,637.4,542.3,636.4,556.1,637.2
			L556.1,637.2z"/>
		<path class="st0" d="M701.4,544.7c31.4,16,49.6,34.4,49.6,67.4c0,48.7-39.6,73.1-95.7,73.1c-39.6,0-71.8-11.7-78.7-14.6l0.3-33.4
			v-25.7c8.4-1.5,16.9-4,25.3-4c0.7,10.3,2.4,23.5,5.1,36.5c13.2,3.4,28.5,6.9,44.5,6.9c29.8,0,52.1-11.6,52.1-35.8
			c0-16.4-10.1-26.6-25.2-34.2l-51.8-26.5c-28.9-14.9-43.1-34.1-43.1-61.6c0-41.4,36.7-70.2,93.7-70.2c32.8,0,59.7,9.5,65,11
			l-0.3,34.6v25.2c-8.4,1.5-16.9,4-25.3,4c-0.7-10.6-2.5-24.3-5.3-37.6c-8.9-1.6-19.1-2.8-30-2.8c-32.6,0-52.1,11.5-52.1,33
			c0,15.2,9.7,23.2,27.1,32L701.4,544.7z"/>
	</g>
	<g>
		<line class="st1" x1="202.7" y1="388.3" x2="202.7" y2="710.3"/>
		<line class="st1" x1="202.7" y1="207.9" x2="202.7" y2="388.3"/>
		<line class="st1" x1="821.3" y1="388.3" x2="821.3" y2="710.3"/>
		<line class="st1" x1="990.9" y1="461" x2="821.3" y2="388.3"/>
		<polyline class="st1" points="821.3,388.3 512,255.6 202.7,388.3 		"/>
		<line class="st1" x1="202.7" y1="388.3" x2="33.1" y2="461"/>
	</g>
</g>
<g>
	<path class="st2" d="M330.5,866.6c4.8,1.1,10.2,1.9,14.4,2.2c0,2.5-0.8,5-1.2,7.4l-13.2,0l-14.7,0h-13.2c-0.4-2.5-1.2-5-1.2-7.4
		c4-0.3,9.5-1.1,14.4-2.4v-37h-57.7v37.2c4.8,1.1,10.2,1.9,14.4,2.2c0,2.5-0.8,5-1.2,7.4h-13.2h-14.7h-13.2c-0.4-2.5-1.2-5-1.2-7.4
		c4-0.3,9.5-1.1,14.4-2.4v-84.7c-4.8-1.1-10.2-1.9-14.4-2.2c0-2.5,0.8-5,1.2-7.4l13.2,0l14.7,0h13.2c0.4,2.5,1.2,5,1.2,7.4
		c-4,0.3-9.5,1.1-14.4,2.4v35.8h57.7v-35.9c-4.8-1.1-10.2-1.9-14.4-2.2c0-2.5,0.8-5,1.2-7.4l13.2,0l14.7,0h13.2
		c0.4,2.5,1.2,5,1.2,7.4c-4,0.3-9.5,1.1-14.4,2.4V866.6z"/>
	<path class="st2" d="M416.8,836.9c0,24-16.4,40.9-37.9,40.9c-20.4,0-33.3-15.1-33.3-36.5c0-24.1,16.4-40.8,37.9-40.8
		C403.9,800.4,416.8,815.5,416.8,836.9z M359.4,840c0.1,16.5,8.6,27.6,21.1,27.6c13.1,0,22.6-12.1,22.5-29.4
		c-0.1-16.4-8.6-27.5-21.1-27.5C368.7,810.6,359.3,822.7,359.4,840z"/>
	<path class="st2" d="M509.1,863.6c0.8,1.9,1.1,4.9,1.1,7.4c-6.3,0.8-14.1,2.6-21.5,6.7H486c0,0-3.5-11.8-4-25.9
		c-6.1,15.7-17,25.9-29.7,25.9c-13.8,0-20.1-9.5-20.1-25.3v-38.1c-3.9,0.9-8.9,1.3-13.3,1c-0.8-2.5-1.1-4.9-1.1-7.4
		c6.3-0.8,14-2.7,21.5-6.8h6.8v48c0,10.9,3.6,17.1,11.9,17.1c12.6,0,24-19.2,24-43.1v-8.9c-3.9,0.9-8.9,1.3-13.3,1
		c-0.8-2.5-1.1-4.9-1.1-7.4c6.3-0.8,14-2.7,21.5-6.8h6.8v46.8c0,6.5,0.4,12.1,0.9,16.4C500.6,863.7,505.1,863.4,509.1,863.6
		L509.1,863.6z"/>
	<path class="st2" d="M550.3,836.4c9.3,4.7,14.6,10.1,14.6,19.8c0,14.3-11.6,21.5-28.2,21.5c-11.7,0-21.1-3.4-23.2-4.3l0.1-9.8v-7.6
		c2.5-0.4,5-1.2,7.4-1.2c0.2,3,0.7,6.9,1.5,10.8c3.9,1,8.4,2,13.1,2c8.8,0,15.3-3.4,15.3-10.5c0-4.8-3-7.8-7.4-10.1l-15.2-7.8
		c-8.5-4.4-12.7-10-12.7-18.1c0-12.2,10.8-20.7,27.6-20.7c9.6,0,17.6,2.8,19.1,3.3l-0.1,10.2v7.4c-2.5,0.4-5,1.2-7.4,1.2
		c-0.2-3.1-0.7-7.1-1.6-11.1c-2.6-0.5-5.6-0.8-8.8-0.8c-9.6,0-15.3,3.4-15.3,9.7c0,4.5,2.8,6.8,8,9.4L550.3,836.4z"/>
	<path class="st2" d="M605.8,800.4c18.2,0,31.1,12.4,27.9,37.7l-49.3,1.5c0.5,18,10.4,27.5,23.8,27.5c12.5,0,21.3-7.8,21.3-7.8
		c2.1,1.1,2.8,4,2.7,7.4c0,0-10.5,11-28.2,11c-19.9,0-33.5-14.4-33.5-37C570.4,817.6,584.5,800.4,605.8,800.4L605.8,800.4z
		 M585.2,829.8l36.1-1.2c-0.6-11.1-5.9-17.8-15.8-17.8C594.6,810.8,587.5,818.7,585.2,829.8z"/>
	<path class="st3" d="M649.4,862.8c4.3,0,7.7,3.2,7.7,7.5c0,4.2-3.4,7.5-7.7,7.5c-4.3,0-7.6-3.2-7.6-7.5
		C641.7,866,645.1,862.8,649.4,862.8L649.4,862.8z"/>
	<path class="st0" d="M744.8,863.6c0.8,1.9,1.1,4.9,1.1,7.4c-6.3,0.8-14.1,2.6-21.5,6.7h-2.7c0,0-3.5-11.8-4-25.9
		c-6.1,15.7-17,25.9-29.7,25.9c-13.8,0-20.1-9.5-20.1-25.3v-38.1c-3.9,0.9-8.9,1.3-13.3,1c-0.8-2.5-1.1-4.9-1.1-7.4
		c6.3-0.8,14-2.7,21.5-6.8h6.8v48c0,10.9,3.6,17.1,11.9,17.1c12.6,0,24-19.2,24-43.1v-8.9c-3.9,0.9-8.9,1.3-13.3,1
		c-0.8-2.5-1.1-4.9-1.1-7.4c6.3-0.8,14-2.7,21.5-6.8h6.8v46.8c0,6.5,0.4,12.1,0.9,16.4C736.2,863.7,740.8,863.4,744.8,863.6
		L744.8,863.6z"/>
	<path class="st0" d="M785.9,836.4c9.3,4.7,14.6,10.1,14.6,19.8c0,14.3-11.6,21.5-28.2,21.5c-11.7,0-21.1-3.4-23.2-4.3l0.1-9.8v-7.6
		c2.5-0.4,5-1.2,7.4-1.2c0.2,3,0.7,6.9,1.5,10.8c3.9,1,8.4,2,13.1,2c8.8,0,15.3-3.4,15.3-10.5c0-4.8-3-7.8-7.4-10.1l-15.2-7.8
		c-8.5-4.4-12.7-10-12.7-18.1c0-12.2,10.8-20.7,27.6-20.7c9.6,0,17.6,2.8,19.1,3.3l-0.1,10.2v7.4c-2.5,0.4-5,1.2-7.4,1.2
		c-0.2-3.1-0.7-7.1-1.6-11.1c-2.6-0.5-5.6-0.8-8.8-0.8c-9.6,0-15.3,3.4-15.3,9.7c0,4.5,2.8,6.8,8,9.4L785.9,836.4z"/>
</g>
</svg>
